#!OML:ASF H:\Dans Jumps\Project 1\Capture day 1\Session 1\subject.ASF
:FULLY-SPECIFIED
:DEGREES
442
root 0.474402 17.7184 -1.72595 7.34425 1.0023 -0.828479
lowerback -0.930089 -0.346453 -0.614437
upperback 4.49447 -0.512541 1.62715
thorax 5.18576 -0.318934 2.00146
lowerneck -12.2596 0.116497 -1.92881
upperneck 35.2977 0.481472 0.644751
head 14.0778 0.0415102 0.677245
rclavicle 4.37326e-015 -1.19271e-014
rhumerus -19.8294 -21.6568 -82.1038
rradius 21.0832
rwrist 37.686
rhand -19.8218 -26.1457
rfingers 7.12502
rthumb 6.51182 -56.0256
lclavicle 4.37326e-015 -1.19271e-014
lhumerus -17.775 -0.831025 90.2337
lradius 16.7411
lwrist 0.873861
lhand -25.5971 -4.46021
lfingers 7.12502
lthumb 0.934923 25.5175
rfemur -15.5848 -2.82755 18.9549
rtibia 24.5438
rfoot -14.1607 -2.23967
rtoes 11.1385
lfemur -14.72 6.74521 -18.2563
ltibia 20.28
lfoot -10.2956 4.72255
ltoes 3.23917
443
root 0.473489 17.7187 -1.72444 7.35013 1.00957 -0.826097
lowerback -0.936033 -0.351992 -0.613206
upperback 4.49304 -0.52018 1.63142
thorax 5.18801 -0.322784 2.00477
lowerneck -12.2678 0.122248 -1.92558
upperneck 35.2929 0.492526 0.6354
head 14.0773 0.0454774 0.674567
rclavicle 2.98177e-015 1.98785e-015
rhumerus -19.8319 -21.6601 -82.0887
rradius 21.0775
rwrist 37.6949
rhand -19.8256 -26.1324
rfingers 7.12502
rthumb 6.50821 -56.0124
lclavicle 2.98177e-015 1.98785e-015
lhumerus -17.7469 -0.977479 90.2783
lradius 16.837
lwrist 1.05247
lhand -25.6221 -4.46744
lfingers 7.12502
lthumb 0.910688 25.5104
rfemur -15.5794 -2.83392 18.9562
rtibia 24.5337
rfoot -14.1625 -2.23886
rtoes 11.1578
lfemur -14.7152 6.74419 -18.2559
ltibia 20.2666
lfoot -10.2938 4.71697
ltoes 3.22937
444
root 0.472475 17.719 -1.72299 7.35565 1.01697 -0.82711
lowerback -0.939216 -0.356959 -0.609795
upperback 4.48964 -0.52715 1.63672
thorax 5.18658 -0.326197 2.00795
lowerneck -12.2782 0.127229 -1.92279
upperneck 35.2944 0.502072 0.627687
head 14.0802 0.0489037 0.67246
rclavicle -5.86415e-015 1.35174e-014
rhumerus -19.8377 -21.6613 -82.0713
rradius 21.0763
rwrist 37.6961
rhand -19.8293 -26.121
rfingers 7.12502
rthumb 6.50461 -56.0011
lclavicle -5.86415e-015 1.35174e-014
lhumerus -17.7245 -1.12114 90.3211
lradius 16.9383
lwrist 1.22407
lhand -25.6491 -4.49571
lfingers 7.12502
lthumb 0.884633 25.4822
rfemur -15.5732 -2.83866 18.9617
rtibia 24.5219
rfoot -14.1623 -2.23891
rtoes 11.1748
lfemur -14.7109 6.74148 -18.2511
ltibia 20.2544
lfoot -10.2922 4.714
ltoes 3.22754
445
root 0.471425 17.7194 -1.72171 7.36187 1.02578 -0.828217
lowerback -0.939 -0.36204 -0.607516
upperback 4.48324 -0.534242 1.6432
thorax 5.18008 -0.329693 2.013
lowerneck -12.2883 0.13123 -1.92458
upperneck 35.3 0.50996 0.624204
head 14.085 0.0515431 0.672655
rclavicle -7.45443e-015 2.38542e-015
rhumerus -19.8471 -21.6606 -82.0492
rradius 21.0786
rwrist 37.6963
rhand -19.8358 -26.1174
rfingers 7.12502
rthumb 6.49838 -55.9977
lclavicle -7.45443e-015 2.38542e-015
lhumerus -17.7071 -1.26157 90.3645
lradius 17.0433
lwrist 1.39062
lhand -25.6777 -4.54022
lfingers 7.12502
lthumb 0.857007 25.4378
rfemur -15.5679 -2.84512 18.9678
rtibia 24.5098
rfoot -14.1605 -2.23969
rtoes 11.1851
lfemur -14.7077 6.73561 -18.2459
ltibia 20.2419
lfoot -10.2901 4.71194
ltoes 3.24064
446
root 0.470368 17.7199 -1.7204 7.36744 1.03315 -0.835478
lowerback -0.938816 -0.36633 -0.599325
upperback 4.47651 -0.540556 1.65117
thorax 5.17318 -0.332585 2.0163
lowerneck -12.2993 0.134788 -1.92721
upperneck 35.3089 0.516815 0.62252
head 14.0914 0.0538382 0.673597
rclavicle -2.98177e-015 7.55382e-015
rhumerus -19.8554 -21.6653 -82.0251
rradius 21.0818
rwrist 37.7033
rhand -19.8403 -26.1234
rfingers 7.12502
rthumb 6.49396 -56.0038
lclavicle -2.98177e-015 7.55382e-015
lhumerus -17.69 -1.40381 90.4064
lradius 17.1494
lwrist 1.55502
lhand -25.7014 -4.58631
lfingers 7.12502
lthumb 0.834127 25.3918
rfemur -15.561 -2.85083 18.9808
rtibia 24.4965
rfoot -14.1578 -2.24003
rtoes 11.1869
lfemur -14.703 6.73075 -18.2337
ltibia 20.2296
lfoot -10.2895 4.71174
ltoes 3.2608
447
root 0.469283 17.7204 -1.71906 7.37391 1.03689 -0.836242
lowerback -0.939509 -0.369004 -0.597564
upperback 4.46794 -0.544332 1.6564
thorax 5.16477 -0.334401 2.02052
lowerneck -12.3061 0.137269 -1.92948
upperneck 35.3183 0.521128 0.622956
head 14.0972 0.055373 0.674932
rclavicle -1.30204e-014 1.19271e-015
rhumerus -19.8644 -21.678 -81.9977
rradius 21.0829
rwrist 37.719
rhand -19.8497 -26.1263
rfingers 7.12502
rthumb 6.48494 -56.007
lclavicle -1.30204e-014 1.19271e-015
lhumerus -17.6719 -1.55693 90.448
lradius 17.2477
lwrist 1.72355
lhand -25.7304 -4.64243
lfingers 7.12502
lthumb 0.80611 25.3358
rfemur -15.5551 -2.8562 18.9865
rtibia 24.4825
rfoot -14.155 -2.23841
rtoes 11.188
lfemur -14.6987 6.72596 -18.2287
ltibia 20.2177
lfoot -10.2885 4.71399
ltoes 3.2875
448
root 0.468166 17.7209 -1.71764 7.38005 1.03839 -0.838935
lowerback -0.942473 -0.371217 -0.594263
upperback 4.46073 -0.547575 1.66169
thorax 5.15906 -0.335915 2.02394
lowerneck -12.3112 0.140027 -1.93348
upperneck 35.3248 0.525058 0.626762
head 14.1011 0.05698 0.67785
rclavicle 5.36719e-015 -7.95139e-015
rhumerus -19.8681 -21.6896 -81.9721
rradius 21.0848
rwrist 37.7347
rhand -19.8585 -26.1385
rfingers 7.12502
rthumb 6.4764 -56.0194
lclavicle 5.36719e-015 -7.95139e-015
lhumerus -17.6478 -1.71713 90.4876
lradius 17.3377
lwrist 1.89682
lhand -25.7678 -4.72335
lfingers 7.12502
lthumb 0.769977 25.255
rfemur -15.5483 -2.85893 18.9942
rtibia 24.4673
rfoot -14.1525 -2.23698
rtoes 11.1877
lfemur -14.6935 6.72087 -18.2212
ltibia 20.2063
lfoot -10.2872 4.71893
ltoes 3.31218
449
root 0.467031 17.7214 -1.71612 7.38537 1.03628 -0.844143
lowerback -0.948709 -0.372916 -0.588814
upperback 4.45594 -0.550255 1.66708
thorax 5.15771 -0.337108 2.0263
lowerneck -12.314 0.144046 -1.93581
upperneck 35.3257 0.530608 0.629654
head 14.1021 0.0594208 0.680297
rclavicle 6.65929e-015 -6.75868e-015
rhumerus -19.8647 -21.6986 -81.9495
rradius 21.0867
rwrist 37.7526
rhand -19.8699 -26.1484
rfingers 7.12502
rthumb 6.46544 -56.0297
lclavicle 6.65929e-015 -6.75868e-015
lhumerus -17.6174 -1.88118 90.5243
lradius 17.419
lwrist 2.07088
lhand -25.8172 -4.83322
lfingers 7.12502
lthumb 0.722332 25.1453
rfemur -15.5411 -2.85939 19.0047
rtibia 24.4526
rfoot -14.1516 -2.23398
rtoes 11.1877
lfemur -14.6864 6.71868 -18.2108
ltibia 20.1943
lfoot -10.286 4.72513
ltoes 3.33188
450
root 0.465838 17.7218 -1.71456 7.39133 1.03157 -0.847388
lowerback -0.956817 -0.373743 -0.585364
upperback 4.4508 -0.551641 1.67119
thorax 5.15703 -0.337713 2.02851
lowerneck -12.3113 0.148173 -1.93755
upperneck 35.3218 0.53569 0.633393
head 14.0996 0.0618949 0.68285
rclavicle 3.47873e-015 -1.63003e-014
rhumerus -19.8593 -21.7052 -81.9283
rradius 21.0892
rwrist 37.769
rhand -19.8805 -26.1649
rfingers 7.12502
rthumb 6.45513 -56.0465
lclavicle 3.47873e-015 -1.63003e-014
lhumerus -17.5871 -2.0439 90.5578
lradius 17.4955
lwrist 2.24069
lhand -25.8602 -4.92356
lfingers 7.12502
lthumb 0.680785 25.0551
rfemur -15.5351 -2.85615 19.013
rtibia 24.4381
rfoot -14.1507 -2.23255
rtoes 11.1872
lfemur -14.6797 6.71583 -18.2022
ltibia 20.1824
lfoot -10.2846 4.73442
ltoes 3.34183
